<?xml version="1.0" encoding="UTF-8" standalone="no"?>
<!-- Created with Inkscape (http://www.inkscape.org/) -->

<svg
   xmlns:dc="http://purl.org/dc/elements/1.1/"
   xmlns:cc="http://creativecommons.org/ns#"
   xmlns:rdf="http://www.w3.org/1999/02/22-rdf-syntax-ns#"
   xmlns:svg="http://www.w3.org/2000/svg"
   xmlns="http://www.w3.org/2000/svg"
   xmlns:sodipodi="http://sodipodi.sourceforge.net/DTD/sodipodi-0.dtd"
   xmlns:inkscape="http://www.inkscape.org/namespaces/inkscape"
   width="8cm"
   height="8cm"
   viewBox="0 0 283.46457 283.46456"
   id="svg2"
   version="1.1"
   inkscape:version="0.91 r13725"
   sodipodi:docname="heatcontours.svg">
  <defs
     id="defs4" />
  <sodipodi:namedview
     id="base"
     pagecolor="#ffffff"
     bordercolor="#666666"
     borderopacity="1.0"
     inkscape:pageopacity="0.0"
     inkscape:pageshadow="2"
     inkscape:zoom="1.979899"
     inkscape:cx="-12.028664"
     inkscape:cy="138.25234"
     inkscape:document-units="px"
     inkscape:current-layer="g4272"
     showgrid="true"
     units="cm"
     borderlayer="false"
     inkscape:window-width="2560"
     inkscape:window-height="1403"
     inkscape:window-x="0"
     inkscape:window-y="0"
     inkscape:window-maximized="1">
    <inkscape:grid
       type="xygrid"
       id="grid4136"
       units="cm"
       spacingx="35.433071"
       spacingy="35.43307"
       dotted="false"
       originx="17.716535"
       originy="17.716535"
       enabled="false" />
  </sodipodi:namedview>
  <metadata
     id="metadata7">
    <rdf:RDF>
      <cc:Work
         rdf:about="">
        <dc:format>image/svg+xml</dc:format>
        <dc:type
           rdf:resource="http://purl.org/dc/dcmitype/StillImage" />
        <dc:title></dc:title>
      </cc:Work>
    </rdf:RDF>
  </metadata>
  <g
     inkscape:label="Layer 1"
     inkscape:groupmode="layer"
     id="layer1"
     transform="translate(0,-768.89769)">
    <g
       id="g4272">
      <path
         sodipodi:nodetypes="cc"
         inkscape:connector-curvature="0"
         id="path4244"
         d="m 40.493941,786.47693 c 11.419116,17.47125 44.75415,18.51873 60.213879,0.0988"
         style="fill:none;fill-rule:evenodd;stroke:#000000;stroke-width:1;stroke-linecap:butt;stroke-linejoin:miter;stroke-opacity:1;stroke-miterlimit:4;stroke-dasharray:24,1;stroke-dashoffset:0" />
      <path
         sodipodi:nodetypes="cc"
         inkscape:connector-curvature="0"
         id="path4246"
         d="m 33.466793,786.67457 c 10.365044,25.85113 44.095355,52.84855 75.717517,-0.11858"
         style="fill:none;fill-rule:evenodd;stroke:#000000;stroke-width:1;stroke-linecap:butt;stroke-linejoin:miter;stroke-opacity:1;stroke-miterlimit:4;stroke-dasharray:24,1;stroke-dashoffset:0" />
      <path
         sodipodi:nodetypes="cc"
         inkscape:connector-curvature="0"
         id="path4248"
         d="m 28.064673,786.77339 c 23.365268,57.47329 62.453779,70.41862 87.751517,0.0593"
         style="fill:none;fill-rule:evenodd;stroke:#000000;stroke-width:1;stroke-linecap:butt;stroke-linejoin:miter;stroke-opacity:1;stroke-miterlimit:4;stroke-dasharray:24,1;stroke-dashoffset:0" />
      <path
         sodipodi:nodetypes="csc"
         inkscape:connector-curvature="0"
         id="path4250"
         d="m 17.831388,851.38143 c 15.635405,13.99281 20.027373,52.72996 21.959838,74.07493 1.932466,21.34496 -10.540721,56.88036 -21.959837,64.39063"
         style="fill:none;fill-rule:evenodd;stroke:#000000;stroke-width:1;stroke-linecap:butt;stroke-linejoin:miter;stroke-opacity:1;stroke-miterlimit:4;stroke-dasharray:24,1;stroke-dashoffset:0" />
      <path
         sodipodi:nodetypes="csc"
         inkscape:connector-curvature="0"
         id="path4252"
         d="m 17.787469,1004.0572 c 21.784159,-10.19814 32.193122,-42.94685 36.58509,-67.84931 4.391967,-24.90245 -13.922538,-92.11932 -36.67293,-95.59776"
         style="fill:none;fill-rule:evenodd;stroke:#000000;stroke-width:1;stroke-linecap:butt;stroke-linejoin:miter;stroke-opacity:1;stroke-miterlimit:4;stroke-dasharray:24,1;stroke-dashoffset:0" />
      <path
         sodipodi:nodetypes="cssc"
         inkscape:connector-curvature="0"
         id="path4254"
         d="m 17.875308,831.40017 c 8.432578,6.32444 28.41603,18.3211 37.199966,37.84778 8.783935,19.52669 32.324881,106.09237 23.365267,123.48457 -8.959614,17.39218 -51.693458,25.35698 -60.477393,26.38468"
         style="fill:none;fill-rule:evenodd;stroke:#000000;stroke-width:1;stroke-linecap:butt;stroke-linejoin:miter;stroke-opacity:1;stroke-miterlimit:4;stroke-dasharray:24,1;stroke-dashoffset:0" />
      <path
         sodipodi:nodetypes="cccc"
         inkscape:connector-curvature="0"
         id="path4256"
         d="m 265.75796,899.36807 -23.76055,0 0,35.17966 23.36527,0"
         style="fill:none;fill-rule:evenodd;stroke:#000000;stroke-width:1;stroke-linecap:butt;stroke-linejoin:miter;stroke-opacity:1;stroke-miterlimit:4;stroke-dasharray:24,1;stroke-dashoffset:0" />
      <path
         sodipodi:nodetypes="cssc"
         inkscape:connector-curvature="0"
         id="path4258"
         d="m 265.67012,883.95226 c -17.04083,0.0791 -33.86207,8.85421 -40.01083,18.65708 -6.14875,9.80287 -4.39196,34.07288 -1.22975,40.31826 3.16222,6.24538 35.75062,11.79902 41.54802,12.11525"
         style="fill:none;fill-rule:evenodd;stroke:#000000;stroke-width:1;stroke-linecap:butt;stroke-linejoin:miter;stroke-opacity:1;stroke-miterlimit:4;stroke-dasharray:24,1;stroke-dashoffset:0" />
      <path
         sodipodi:nodetypes="cssc"
         inkscape:connector-curvature="0"
         id="path4260"
         d="m 265.58228,867.98307 c -17.91922,2.37166 -48.53124,12.25359 -56.61246,29.80389 -8.08122,17.5503 2.63518,47.98664 4.56764,58.73817 1.93247,10.75154 42.16289,19.05236 52.35226,18.41992"
         style="fill:none;fill-rule:evenodd;stroke:#000000;stroke-width:1;stroke-linecap:butt;stroke-linejoin:miter;stroke-opacity:1;stroke-miterlimit:4;stroke-dasharray:24,1;stroke-dashoffset:0" />
      <path
         inkscape:connector-curvature="0"
         id="path4264"
         d="m 265.88972,842.76439 c -45.32511,-4.26899 -105.93426,-23.32135 -138.78618,-4.90144 -32.851916,18.41992 -53.054966,17.3922 -42.865602,42.84804 10.189365,25.45584 25.824772,102.77204 18.446262,121.03381 -7.378503,18.2618 -8.081218,25.693 -16.689475,32.729"
         style="fill:none;fill-rule:evenodd;stroke:#000000;stroke-width:1;stroke-linecap:butt;stroke-linejoin:miter;stroke-opacity:1;stroke-miterlimit:4;stroke-dasharray:24,1;stroke-dashoffset:0" />
      <path
         sodipodi:nodetypes="csssc"
         inkscape:connector-curvature="0"
         id="path4266"
         d="m 265.93363,988.91809 c -30.21673,-2.52977 -65.74775,-10.73177 -86.12648,-31.28618 -20.37873,-20.55441 -41.63585,-24.66529 -51.1225,-14.70431 -9.48665,9.96099 -6.50011,59.6078 -11.59479,69.885 -5.09469,10.2772 -10.54073,21.7402 -10.54073,21.7402"
         style="fill:none;fill-rule:evenodd;stroke:#000000;stroke-width:1;stroke-linecap:butt;stroke-linejoin:miter;stroke-opacity:1;stroke-miterlimit:4;stroke-dasharray:24,1;stroke-dashoffset:0" />
      <path
         sodipodi:nodetypes="cc"
         inkscape:connector-curvature="0"
         id="path4268"
         d="m 265.71404,1009.5713 c -26.87885,-1.9764 -52.87929,-0.6719 -62.10243,25.0804"
         style="fill:none;fill-rule:evenodd;stroke:#000000;stroke-width:1;stroke-linecap:butt;stroke-linejoin:miter;stroke-opacity:1;stroke-miterlimit:4;stroke-dasharray:24,1;stroke-dashoffset:0" />
      <path
         sodipodi:nodetypes="ccc"
         inkscape:connector-curvature="0"
         id="path4270"
         d="m 266.0654,1023.6432 -40.75746,0 0,10.7515"
         style="fill:none;fill-rule:evenodd;stroke:#000000;stroke-width:1;stroke-linecap:butt;stroke-linejoin:miter;stroke-opacity:1;stroke-miterlimit:4;stroke-dasharray:24,1;stroke-dashoffset:0" />
    </g>
    <rect
       style="fill:none;fill-opacity:1;stroke:#000000;stroke-width:1;stroke-linejoin:round;stroke-miterlimit:4;stroke-dasharray:none;stroke-dashoffset:0;stroke-opacity:1"
       id="rect4138"
       width="248.03149"
       height="248.03149"
       x="17.716536"
       y="786.6142" />
    <path
       style="fill:none;fill-rule:evenodd;stroke:#000000;stroke-width:1px;stroke-linecap:butt;stroke-linejoin:miter;stroke-opacity:1"
       d="m 17.716535,822.0473 0,0 0,0 0,0 0,0 0,0 4.434015,0"
       id="path4140"
       inkscape:connector-curvature="0"
       sodipodi:nodetypes="ccccccc" />
    <path
       style="fill:none;fill-rule:evenodd;stroke:#000000;stroke-width:1px;stroke-linecap:butt;stroke-linejoin:miter;stroke-opacity:1"
       d="m 17.921822,857.48037 0,0 0,0 0,0 0,0 0,0 4.434015,0"
       id="path4140-3"
       inkscape:connector-curvature="0"
       sodipodi:nodetypes="ccccccc" />
    <path
       style="fill:none;fill-rule:evenodd;stroke:#000000;stroke-width:1px;stroke-linecap:butt;stroke-linejoin:miter;stroke-opacity:1"
       d="m 17.359392,892.83751 0,0 0,0 0,0 0,0 0,0 4.434015,0"
       id="path4140-6"
       inkscape:connector-curvature="0"
       sodipodi:nodetypes="ccccccc" />
    <path
       style="fill:none;fill-rule:evenodd;stroke:#000000;stroke-width:1px;stroke-linecap:butt;stroke-linejoin:miter;stroke-opacity:1"
       d="m 17.716535,928.34651 0,0 0,0 0,0 0,0 0,0 4.434015,0"
       id="path4140-7"
       inkscape:connector-curvature="0"
       sodipodi:nodetypes="ccccccc" />
    <path
       style="fill:none;fill-rule:evenodd;stroke:#000000;stroke-width:1px;stroke-linecap:butt;stroke-linejoin:miter;stroke-opacity:1"
       d="m 17.716535,963.77958 0,0 0,0 0,0 0,0 0,0 4.434015,0"
       id="path4140-5"
       inkscape:connector-curvature="0"
       sodipodi:nodetypes="ccccccc" />
    <path
       style="fill:none;fill-rule:evenodd;stroke:#000000;stroke-width:1px;stroke-linecap:butt;stroke-linejoin:miter;stroke-opacity:1"
       d="m 17.716535,999.21265 0,0 0,0 0,0 0,0 0,0 4.434015,0"
       id="path4140-35"
       inkscape:connector-curvature="0"
       sodipodi:nodetypes="ccccccc" />
    <path
       style="fill:none;fill-rule:evenodd;stroke:#000000;stroke-width:1px;stroke-linecap:butt;stroke-linejoin:miter;stroke-opacity:1"
       d="m 53.220042,786.54379 0,0 0,0 0,0 0,0 0,0 0,4.43402"
       id="path4140-62"
       inkscape:connector-curvature="0"
       sodipodi:nodetypes="ccccccc" />
    <path
       style="fill:none;fill-rule:evenodd;stroke:#000000;stroke-width:1px;stroke-linecap:butt;stroke-linejoin:miter;stroke-opacity:1"
       d="m 88.653113,786.54379 0,0 0,0 0,0 0,0 0,0 0,4.43402"
       id="path4140-62-9"
       inkscape:connector-curvature="0"
       sodipodi:nodetypes="ccccccc" />
    <path
       style="fill:none;fill-rule:evenodd;stroke:#000000;stroke-width:1px;stroke-linecap:butt;stroke-linejoin:miter;stroke-opacity:1"
       d="m 124.08618,786.54379 0,0 0,0 0,0 0,0 0,0 0,4.43402"
       id="path4140-62-1"
       inkscape:connector-curvature="0"
       sodipodi:nodetypes="ccccccc" />
    <path
       style="fill:none;fill-rule:evenodd;stroke:#000000;stroke-width:1px;stroke-linecap:butt;stroke-linejoin:miter;stroke-opacity:1"
       d="m 159.51925,786.54379 0,0 0,0 0,0 0,0 0,0 0,4.43402"
       id="path4140-62-2"
       inkscape:connector-curvature="0"
       sodipodi:nodetypes="ccccccc" />
    <path
       style="fill:none;fill-rule:evenodd;stroke:#000000;stroke-width:1px;stroke-linecap:butt;stroke-linejoin:miter;stroke-opacity:1"
       d="m 194.95233,786.54379 0,0 0,0 0,0 0,0 0,0 0,4.43402"
       id="path4140-62-7"
       inkscape:connector-curvature="0"
       sodipodi:nodetypes="ccccccc" />
    <path
       style="fill:none;fill-rule:evenodd;stroke:#000000;stroke-width:1px;stroke-linecap:butt;stroke-linejoin:miter;stroke-opacity:1"
       d="m 230.3854,786.67006 0,0 0,0 0,0 0,0 0,0 0,4.43402"
       id="path4140-62-0"
       inkscape:connector-curvature="0"
       sodipodi:nodetypes="ccccccc" />
  </g>
</svg>
